<svg width="52" height="52" viewBox="0 0 52 52" fill="none" xmlns="http://www.w3.org/2000/svg">
<path d="M49.6245 10.5938L44.0465 14.1183C43.8602 14.2368 43.641 14.2929 43.4207 14.2786C43.2003 14.2642 42.9903 14.18 42.821 14.0383L40.5211 12.1185C40.3599 11.9842 40.2431 11.8044 40.186 11.6025L39.4556 9.04269C39.3909 8.81844 39.4036 8.57895 39.4915 8.36276C39.5795 8.14656 39.7375 7.96623 39.9404 7.85078L46.3135 4.20064C44.8693 2.98725 43.0932 2.23695 41.2164 2.04749C39.3397 1.85803 37.4494 2.2382 35.7919 3.13847C34.1343 4.03873 32.7863 5.41735 31.9235 7.09472C31.0607 8.77209 30.7231 10.6704 30.9546 12.5424C31.0234 13.0283 30.9799 13.5234 30.8273 13.9898C30.6748 14.4562 30.4173 14.8814 30.0747 15.2326L14.903 30.4123C14.5549 30.7537 14.133 31.0106 13.6699 31.1632C13.2068 31.3158 12.7149 31.3599 12.232 31.2923C11.8431 31.2423 11.4514 31.2172 11.0593 31.2171C9.70386 31.2075 8.36265 31.4936 7.12906 32.0553C5.89547 32.617 4.79915 33.4409 3.91646 34.4696C3.03378 35.4982 2.38594 36.707 2.01806 38.0115C1.65019 39.3161 1.57112 40.6852 1.78637 42.0235L8.1219 38.0238C8.30821 37.9053 8.5274 37.8492 8.74773 37.8635C8.96806 37.8779 9.17809 37.9621 9.34741 38.1038L11.6472 40.0236C11.8083 40.1577 11.9252 40.3372 11.9824 40.5388L12.7128 43.0986C12.7774 43.3229 12.7648 43.5623 12.6769 43.7785C12.5889 43.9947 12.4308 44.1751 12.228 44.2905L5.4773 48.1478C7.25555 49.4741 9.44793 50.1237 11.6616 49.9805C12.9464 49.8985 14.2006 49.5531 15.3461 48.9658C16.4917 48.3784 17.5042 47.5617 18.3208 46.5664C19.1373 45.5711 19.7403 44.4185 20.0924 43.1802C20.4445 41.942 20.5381 40.6445 20.3674 39.3685C20.2957 38.8871 20.3363 38.3957 20.486 37.9326C20.6358 37.4695 20.8906 37.0473 21.2305 36.6991L36.3494 21.5802C36.6979 21.2368 37.121 20.9787 37.5858 20.826C38.0505 20.6734 38.5443 20.6303 39.0284 20.7002C40.355 20.8781 41.7043 20.7703 42.9858 20.3841C44.2673 19.9979 45.4514 19.3421 46.4587 18.4607C47.4661 17.5794 48.2733 16.4929 48.8263 15.274C49.3794 14.0552 49.6654 12.7322 49.6653 11.3937C49.6653 11.1225 49.6469 10.8586 49.6245 10.5938Z" stroke="#1F2937" stroke-width="3" stroke-miterlimit="10" stroke-linecap="round" stroke-linejoin="round"/>
</svg>
