<svg width="70" height="70" viewBox="0 0 70 70" fill="none" xmlns="http://www.w3.org/2000/svg">
<circle cx="35" cy="35" r="35" fill="#FFFACC"/>
<circle cx="35" cy="35" r="30" fill="#FFE57C"/>
<path d="M21.4563 48.7499C21.5043 48.9471 21.5913 49.1327 21.7122 49.2957C21.8331 49.4587 21.9854 49.5958 22.1602 49.6989C22.335 49.802 22.5287 49.8691 22.7298 49.8961C22.931 49.9231 23.1355 49.9095 23.3313 49.8562C32.2694 47.3813 41.7119 47.3813 50.65 49.8562C50.8458 49.9095 51.0503 49.9231 51.2515 49.8961C51.4526 49.8691 51.6463 49.802 51.8211 49.6989C51.9959 49.5958 52.1482 49.4587 52.2691 49.2957C52.39 49.1327 52.4771 48.9471 52.525 48.7499L57.3063 28.4437C57.3719 28.1719 57.3603 27.8871 57.2727 27.6216C57.1851 27.3561 57.025 27.1203 56.8105 26.9409C56.5961 26.7615 56.3357 26.6457 56.0588 26.6064C55.782 26.5671 55.4997 26.606 55.2438 26.7187L45.7563 30.9374C45.4125 31.0888 45.0249 31.1074 44.6682 30.9897C44.3115 30.8719 44.0111 30.6262 43.825 30.2999L38.3125 20.3624C38.1828 20.128 37.9927 19.9326 37.7618 19.7965C37.531 19.6604 37.268 19.5886 37 19.5886C36.7321 19.5886 36.469 19.6604 36.2382 19.7965C36.0074 19.9326 35.8172 20.128 35.6875 20.3624L30.175 30.2999C29.9889 30.6262 29.6885 30.8719 29.3319 30.9897C28.9752 31.1074 28.5875 31.0888 28.2438 30.9374L18.7563 26.7187C18.5004 26.606 18.2181 26.5671 17.9412 26.6064C17.6644 26.6457 17.404 26.7615 17.1895 26.9409C16.975 27.1203 16.815 27.3561 16.7274 27.6216C16.6398 27.8871 16.6281 28.1719 16.6938 28.4437L21.4563 48.7499Z" stroke="#1F2937" stroke-width="2" stroke-linecap="round" stroke-linejoin="round"/>
<path d="M31 42.3188C34.9884 41.8876 39.0116 41.8876 43 42.3188" stroke="#1F2937" stroke-width="2" stroke-linecap="round" stroke-linejoin="round"/>
</svg>
