<svg width="70" height="70" viewBox="0 0 70 70" fill="none" xmlns="http://www.w3.org/2000/svg">
<circle cx="35" cy="35" r="35" fill="#FFFACC"/>
<circle cx="35" cy="35" r="30" fill="#FFE57C"/>
<path d="M52.5501 40.0125C52.8611 38.6471 53.0121 37.2502 53.0001 35.85C52.9251 25.9312 44.7126 17.9062 34.8126 18C30.5832 18.0446 26.5046 19.5771 23.2924 22.3287C20.0802 25.0803 17.9395 28.8751 17.246 33.0475C16.5525 37.2199 17.3504 41.5032 19.4997 45.146C21.649 48.7887 25.0125 51.5583 29.0001 52.9687C29.6784 53.2131 30.4056 53.2901 31.1201 53.1934C31.8345 53.0967 32.5151 52.829 33.104 52.4131C33.6929 51.9972 34.1728 51.4453 34.5029 50.8043C34.833 50.1633 35.0035 49.4522 35.0001 48.7312V48C34.9976 47.4083 35.1123 46.822 35.3375 46.275C35.5628 45.7279 35.8942 45.2308 36.3125 44.8124C36.7309 44.3941 37.228 44.0627 37.7751 43.8374C38.3221 43.6122 38.9084 43.4975 39.5001 43.5H48.1626C49.1805 43.5006 50.1686 43.1561 50.9655 42.5227C51.7624 41.8892 52.321 41.0043 52.5501 40.0125V40.0125Z" stroke="#1F2937" stroke-width="2" stroke-linecap="round" stroke-linejoin="round"/>
<path d="M35 28.5C36.2426 28.5 37.25 27.4926 37.25 26.25C37.25 25.0074 36.2426 24 35 24C33.7574 24 32.75 25.0074 32.75 26.25C32.75 27.4926 33.7574 28.5 35 28.5Z" fill="#1F2937"/>
<path d="M26.5625 33.375C27.8051 33.375 28.8125 32.3676 28.8125 31.125C28.8125 29.8824 27.8051 28.875 26.5625 28.875C25.3199 28.875 24.3125 29.8824 24.3125 31.125C24.3125 32.3676 25.3199 33.375 26.5625 33.375Z" fill="#1F2937"/>
<path d="M26.5625 43.125C27.8051 43.125 28.8125 42.1176 28.8125 40.875C28.8125 39.6324 27.8051 38.625 26.5625 38.625C25.3199 38.625 24.3125 39.6324 24.3125 40.875C24.3125 42.1176 25.3199 43.125 26.5625 43.125Z" fill="#1F2937"/>
<path d="M43.4375 33.375C44.6801 33.375 45.6875 32.3676 45.6875 31.125C45.6875 29.8824 44.6801 28.875 43.4375 28.875C42.1949 28.875 41.1875 29.8824 41.1875 31.125C41.1875 32.3676 42.1949 33.375 43.4375 33.375Z" fill="#1F2937"/>
</svg>
