<svg width="39" height="52" viewBox="0 0 39 52" fill="none" xmlns="http://www.w3.org/2000/svg">
<path d="M8.18492 30.5448L2.12512 45.4551L9.14173 44.578L13.5271 49.9999L18.6301 35.1694M31.1484 30.5448L37.2082 45.4551L30.1916 44.578L25.8859 49.9999L20.7032 35.1694" stroke="#1F2937" stroke-width="3" stroke-miterlimit="10" stroke-linecap="round" stroke-linejoin="round"/>
<path d="M19.6667 28.3122C24.951 28.3122 29.2348 24.0284 29.2348 18.7441C29.2348 13.4598 24.951 9.17603 19.6667 9.17603C14.3824 9.17603 10.0986 13.4598 10.0986 18.7441C10.0986 24.0284 14.3824 28.3122 19.6667 28.3122Z" stroke="#1F2937" stroke-width="3" stroke-miterlimit="10" stroke-linecap="round" stroke-linejoin="round"/>
<path d="M19.6667 4.07309L23.2547 2L25.7265 5.34884L29.7929 4.95017L30.67 8.93688L34.577 10.2924L33.7796 14.2791L36.8095 17.0698L34.4175 20.4186L36.0919 24.2458L32.5039 26.3189V30.3854L28.3577 30.8638L26.6833 34.6113L22.7763 33.4153L19.6667 36.1262L16.557 33.4153L12.65 34.6113L10.9756 30.8638L6.82945 30.3854V26.3189L3.24141 24.2458L4.91583 20.4186L2.5238 17.0698L5.5537 14.2791L4.75636 10.2924L8.66334 8.93688L9.54041 4.95017L13.6069 5.34884L16.0786 2L19.6667 4.07309Z" stroke="#1F2937" stroke-width="3" stroke-miterlimit="10" stroke-linecap="round" stroke-linejoin="round"/>
</svg>
