<svg width="1267" height="163" viewBox="0 0 1267 163" fill="none" xmlns="http://www.w3.org/2000/svg">
<path d="M502.5 40.025C337.7 48.8646 102.167 89.9153 5 109.336V146H927V65.6398C854.167 53.4184 667.3 31.1854 502.5 40.025Z" fill="white" fill-opacity="0.1"/>
<path d="M0 0.0376162V149H1267V36.1497C1090.72 1.54229 889.404 51.1964 817.29 61.2276C745.176 71.2587 379.098 91.321 221.349 44.6762C95.1502 7.36034 21.2001 -0.631126 0 0.0376162Z" fill="white" fill-opacity="0.1"/>
<path d="M331.307 112C150.092 112 42.3337 74.6667 0 56V163H1267V90C1200.74 69 1045.12 27 911.095 27C739.418 27 541.135 112 331.307 112Z" fill="#FAFAFA"/>
</svg>
